<svg width="12" height="14" viewBox="0 0 12 14" fill="none" xmlns="http://www.w3.org/2000/svg">
<path d="M5.29609 13.7063C5.68672 14.0969 6.32109 14.0969 6.71172 13.7063L11.7117 8.70625C12.1023 8.31563 12.1023 7.68125 11.7117 7.29062C11.3211 6.9 10.6867 6.9 10.2961 7.29062L7.00234 10.5875V1C7.00234 0.446875 6.55547 0 6.00234 0C5.44922 0 5.00234 0.446875 5.00234 1V10.5844L1.70859 7.29375C1.31797 6.90312 0.683594 6.90312 0.292969 7.29375C-0.0976562 7.68437 -0.0976562 8.31875 0.292969 8.70938L5.29297 13.7094L5.29609 13.7063Z" fill="url(#paint0_linear_1_329)"/>
<defs>
<linearGradient id="paint0_linear_1_329" x1="6.00234" y1="0" x2="6.00234" y2="13.9992" gradientUnits="userSpaceOnUse">
<stop stop-color="#EAAD12"/>
<stop offset="1" stop-color="#CF8920"/>
</linearGradient>
</defs>
</svg>
