<svg preserveAspectRatio="none" viewBox="0 0 19 26" fill="none" xmlns="http://www.w3.org/2000/svg">
<path d="M16.9516 7.64765C17.5701 7.01288 17.5701 5.98203 16.9516 5.34726C16.3331 4.71249 15.3287 4.71249 14.7102 5.34726L9.50003 10.6996L4.28492 5.35234C3.66643 4.71757 2.66201 4.71757 2.04352 5.35234C1.42503 5.9871 1.42503 7.01796 2.04352 7.65273L7.25862 13L2.04847 18.3523C1.42998 18.9871 1.42998 20.018 2.04847 20.6527C2.66696 21.2875 3.67138 21.2875 4.28987 20.6527L9.50003 15.3004L14.7151 20.6476C15.3336 21.2824 16.3381 21.2824 16.9565 20.6476C17.575 20.0129 17.575 18.982 16.9565 18.3473L11.7414 13L16.9516 7.64765Z" fill="url(#paint0_linear_1_317)"/>
<defs>
<linearGradient id="paint0_linear_1_317" x1="9.50003" y1="4.87119" x2="9.50003" y2="21.1288" gradientUnits="userSpaceOnUse">
<stop stop-color="#EAAD12"/>
<stop offset="1" stop-color="#CF8920"/>
</linearGradient>
</defs>
</svg>
