<svg viewBox="0 0 17 21" fill="none" xmlns="http://www.w3.org/2000/svg">
<path d="M0 4.25C0 3.55859 0.542634 3 1.21429 3H15.7857C16.4574 3 17 3.55859 17 4.25C17 4.94141 16.4574 5.5 15.7857 5.5H1.21429C0.542634 5.5 0 4.94141 0 4.25ZM0 10.5C0 9.80859 0.542634 9.25 1.21429 9.25H15.7857C16.4574 9.25 17 9.80859 17 10.5C17 11.1914 16.4574 11.75 15.7857 11.75H1.21429C0.542634 11.75 0 11.1914 0 10.5ZM17 16.75C17 17.4414 16.4574 18 15.7857 18H1.21429C0.542634 18 0 17.4414 0 16.75C0 16.0586 0.542634 15.5 1.21429 15.5H15.7857C16.4574 15.5 17 16.0586 17 16.75Z" fill="url(#paint0_linear_1_20)"/>
<defs>
<linearGradient id="paint0_linear_1_20" x1="8.5" y1="3" x2="8.5" y2="18" gradientUnits="userSpaceOnUse">
<stop stop-color="#EAAD12"/>
<stop offset="1" stop-color="#CF8920"/>
</linearGradient>
</defs>
</svg>