<svg preserveAspectRatio="none" viewBox="0 0 19 16" fill="none" xmlns="http://www.w3.org/2000/svg">
<path d="M18.0627 14.8C17.5694 15.0267 17.0294 15.14 16.4427 15.14C15.8694 15.14 15.4161 14.9933 15.0827 14.7C14.7494 14.3933 14.5627 13.86 14.5227 13.1L13.9627 2.98L10.4627 14.08C10.2627 14.6933 9.83607 15 9.18273 15C8.8094 14.9867 8.5494 14.9067 8.40273 14.76C8.25607 14.6133 8.13607 14.38 8.04273 14.06L4.42273 2.96L3.84273 13.04C3.7894 13.7867 3.63607 14.34 3.38273 14.7C3.14273 15.0467 2.7094 15.22 2.08273 15.22C1.45607 15.22 0.896068 14.96 0.402734 14.44C0.789401 14.08 1.00273 13.5467 1.04273 12.84L1.84273 2.62C1.84273 2.54 1.84273 2.45333 1.84273 2.36C1.84273 1.73333 1.7094 1.23333 1.44273 0.86C2.40273 0.339999 3.4294 0.079999 4.52273 0.079999C5.61607 0.079999 6.38273 0.339999 6.82273 0.86C7.27607 1.38 7.6694 2.26 8.00273 3.5L9.60273 9.24L11.1627 3.6C11.5494 2.2 12.0361 1.26667 12.6227 0.799999C13.2227 0.319999 13.9961 0.079999 14.9427 0.079999C15.9027 0.079999 16.7227 0.226666 17.4027 0.519999C17.1627 0.92 17.0427 1.41333 17.0427 2C17.0427 2.12 17.0494 2.25333 17.0627 2.4L17.6627 12.76C17.6894 13.6933 17.8227 14.3733 18.0627 14.8Z" fill="white"/>
</svg>