<svg preserveAspectRatio="none" viewBox="0 0 23 23" fill="none" xmlns="http://www.w3.org/2000/svg">
<path d="M14.0785 1.47793C15.2465 1.71152 16.0057 2.84804 15.7721 4.01601L15.6687 4.52812C15.4307 5.72754 14.9904 6.86855 14.375 7.90625H20.8438C22.0342 7.90625 23 8.87207 23 10.0625C23 10.8936 22.5283 11.6168 21.8365 11.9762C22.3262 12.3715 22.6406 12.9779 22.6406 13.6562C22.6406 14.7074 21.8859 15.5834 20.8932 15.7721C21.0908 16.1 21.2031 16.4818 21.2031 16.8906C21.2031 17.8475 20.5787 18.6605 19.7162 18.9391C19.7477 19.0873 19.7656 19.2445 19.7656 19.4062C19.7656 20.5967 18.7998 21.5625 17.6094 21.5625H13.2295C12.376 21.5625 11.5449 21.3109 10.8352 20.8393L9.10566 19.6848C7.90625 18.8852 7.1875 17.5375 7.1875 16.0955V14.375V12.2187V11.1002C7.1875 9.78847 7.78496 8.55312 8.80469 7.73105L9.13711 7.46601C10.3275 6.51367 11.1406 5.175 11.4371 3.68359L11.5404 3.17148C11.774 2.00351 12.9105 1.24433 14.0785 1.47793ZM1.4375 8.625H4.3125C5.10762 8.625 5.75 9.26738 5.75 10.0625V20.125C5.75 20.9201 5.10762 21.5625 4.3125 21.5625H1.4375C0.642383 21.5625 0 20.9201 0 20.125V10.0625C0 9.26738 0.642383 8.625 1.4375 8.625Z" fill="url(#paint0_linear_1_148)"/>
<defs>
<linearGradient id="paint0_linear_1_148" x1="11.5" y1="1.4357" x2="11.5" y2="21.5625" gradientUnits="userSpaceOnUse">
<stop stop-color="#FFD700"/>
<stop offset="1" stop-color="#EAAD12"/>
</linearGradient>
</defs>
</svg>

