<svg preserveAspectRatio="none" viewBox="0 0 12 16" fill="none" xmlns="http://www.w3.org/2000/svg">
<path d="M11.3385 3.04C11.3385 3.53333 11.1785 3.93333 10.8585 4.24C10.5518 4.53333 10.1252 4.68 9.57852 4.68C9.03185 4.68 8.51852 4.50667 8.03852 4.16C8.14518 3.94667 8.19852 3.67333 8.19852 3.34C8.19852 2.99333 7.99852 2.68667 7.59852 2.42C7.21185 2.15333 6.65185 2.02 5.91852 2.02C5.19852 2.02 4.60518 2.15333 4.13852 2.42C3.67185 2.68667 3.43852 3.04667 3.43852 3.5C3.43852 3.94 3.71852 4.35333 4.27852 4.74C4.85185 5.11333 5.53852 5.48 6.33852 5.84C7.15185 6.18667 7.95852 6.56667 8.75852 6.98C9.57185 7.39333 10.2585 7.93333 10.8185 8.6C11.3918 9.26667 11.6785 10.0133 11.6785 10.84C11.6785 12.12 11.1052 13.1733 9.95852 14C8.82518 14.8133 7.44518 15.22 5.81852 15.22C4.20518 15.22 2.83852 14.92 1.71852 14.32C0.598516 13.7067 0.0385157 12.92 0.0385157 11.96C0.0385157 11.4 0.231849 10.9533 0.618516 10.62C1.01852 10.2867 1.49185 10.12 2.03852 10.12C2.59852 10.12 3.14518 10.3333 3.67852 10.76C3.35852 11.0533 3.19852 11.4067 3.19852 11.82C3.19852 12.2333 3.43852 12.58 3.91852 12.86C4.41185 13.14 5.06518 13.28 5.87852 13.28C6.70518 13.28 7.35185 13.1133 7.81852 12.78C8.29852 12.4467 8.53852 12.0067 8.53852 11.46C8.53852 10.9 8.25185 10.4067 7.67852 9.98C7.11852 9.54 6.43185 9.14667 5.61852 8.8C4.81852 8.45333 4.01185 8.08667 3.19852 7.7C2.39852 7.31333 1.71185 6.82667 1.13852 6.24C0.578516 5.64 0.298516 4.96 0.298516 4.2C0.298516 2.94667 0.845182 1.94667 1.93852 1.2C3.03185 0.453332 4.37185 0.079999 5.95852 0.079999C7.54518 0.079999 8.83852 0.359999 9.83852 0.919999C10.8385 1.48 11.3385 2.18667 11.3385 3.04Z" fill="white"/>
</svg>
