<svg preserveAspectRatio="none" viewBox="0 0 15 16" fill="none" xmlns="http://www.w3.org/2000/svg">
<path d="M10.7753 0.599999C11.322 0.253332 11.902 0.079999 12.5153 0.079999C13.1286 0.079999 13.602 0.239999 13.9353 0.559999C14.2686 0.879999 14.4353 1.28667 14.4353 1.78C14.4353 2.27333 14.3153 2.80667 14.0753 3.38L10.2353 12.68C9.80865 13.7067 9.42865 14.3867 9.09531 14.72C8.76198 15.0533 8.22865 15.22 7.49531 15.22C7.10865 15.22 6.79531 15.1867 6.55531 15.12C6.32865 15.0533 6.11531 14.9 5.91531 14.66C5.72865 14.42 5.57531 14.1733 5.45531 13.92C5.34865 13.6667 5.19531 13.2533 4.99531 12.68L1.37531 2.48C1.12198 1.77333 0.768646 1.3 0.315313 1.06C0.941979 0.406666 1.63531 0.079999 2.39531 0.079999C2.94198 0.079999 3.39531 0.246666 3.75531 0.58C4.11531 0.9 4.43531 1.48 4.71531 2.32L7.79531 11.94L10.8353 3.32C11.0886 2.54667 11.2153 1.97333 11.2153 1.6C11.2153 1.21333 11.0686 0.879999 10.7753 0.599999Z" fill="white"/>
</svg>